<svg xmlns="http://www.w3.org/2000/svg" version="1.1" xmlns:xlink="http://www.w3.org/1999/xlink" xmlns:svgjs="http://svgjs.dev/svgjs" width="2000" height="4940" viewBox="0 0 2000 4940"><g transform="matrix(1,0,0,1,-3.769999999999527,2)"><svg viewBox="0 0 100 247" data-background-color="#fefbf6" preserveAspectRatio="xMidYMid meet" height="4940" width="2000" xmlns="http://www.w3.org/2000/svg" xmlns:xlink="http://www.w3.org/1999/xlink"><g id="tight-bounds" transform="matrix(1,0,0,1,0.18849999999997635,-0.09999999999999432)"><svg viewBox="0 0 99.62299267605634 247.2" height="247.2" width="99.62299267605634"><g><svg></svg></g><g><svg viewBox="0 0 99.62299267605634 247.2" height="247.2" width="99.62299267605634"><g transform="matrix(1,0,0,1,0,47.215199999999996)"><svg viewBox="0 0 99.62299267605634 152.7696" height="152.7696" width="99.62299267605634"><g><svg viewBox="0 0 99.62299267605634 152.7696" height="152.7696" width="99.62299267605634"><g><svg viewBox="0 0 99.62299267605634 152.7696" height="152.7696" width="99.62299267605634"><g><svg viewBox="0 0 99.62299267605634 152.7696" height="152.7696" width="99.62299267605634"><g id="textblocktransform"><svg viewBox="0 0 99.62299267605634 152.7696" height="152.7696" width="99.62299267605634" id="textblock"><g><svg viewBox="0 0 99.62299267605634 152.7696" height="152.7696" width="99.62299267605634"><g transform="matrix(1,0,0,1,0,0)"><svg width="99.62299267605634" viewBox="2.05 -34.9 23.15 35.5" height="152.7696" data-palette-color="#29231d"><path d="M13.6 0.6Q8.5 0.6 5.28-1.9 2.05-4.4 2.05-9.7L2.05-9.7 2.1-10.7 6.65-10.7 6.6-9.65Q6.6-6.6 8.47-5.03 10.35-3.45 13.4-3.45L13.4-3.45Q16.85-3.45 18.73-4.93 20.6-6.4 20.6-9.15L20.6-9.15Q20.6-11 19.58-12.18 18.55-13.35 17.03-14.05 15.5-14.75 12.85-15.6L12.85-15.6Q9.6-16.7 7.6-17.7 5.6-18.7 4.17-20.63 2.75-22.55 2.75-25.7L2.75-25.7Q2.75-30.2 5.8-32.55 8.85-34.9 13.65-34.9L13.65-34.9Q18.45-34.9 21.43-32.52 24.4-30.15 24.4-25.25L24.4-25.25 24.4-24.65 19.85-24.65 19.85-25.4Q19.85-27.95 18.13-29.4 16.4-30.85 13.75-30.85L13.75-30.85Q10.9-30.85 9.15-29.63 7.4-28.4 7.4-26.05L7.4-26.05Q7.4-24.3 8.4-23.18 9.4-22.05 10.9-21.38 12.4-20.7 15-19.85L15-19.85Q18.3-18.75 20.33-17.78 22.35-16.8 23.78-14.88 25.2-12.95 25.2-9.9L25.2-9.9Q25.2-4.4 22.08-1.9 18.95 0.6 13.6 0.6L13.6 0.6Z" opacity="1" transform="matrix(1,0,0,1,0,0)" fill="#ffffff" class="wordmark-text-0" data-fill-palette-color="primary" id="text-0"></path></svg></g></svg></g></svg></g></svg></g><g></g></svg></g></svg></g></svg></g><path d="M0 41.215L0 1 99.623 1 99.623 41.215 85.846 41.215 85.846 14.777 13.777 14.777 13.777 41.215 0 41.215M0 205.985L0 246.2 99.623 246.2 99.623 205.985 85.846 205.985 85.846 232.423 13.777 232.423 13.777 205.985 0 205.985" fill="#ffffff" stroke="transparent" data-fill-palette-color="tertiary"></path></svg></g><defs></defs></svg><rect width="99.62299267605634" height="247.2" fill="none" stroke="none" visibility="hidden"></rect></g></svg></g></svg>